<svg width="127" height="42" viewBox="0 0 127 42" fill="none" xmlns="http://www.w3.org/2000/svg">
<path fill-rule="evenodd" clip-rule="evenodd" d="M25.7621 40.9624C34.8341 38.731 41.5631 30.5421 41.5631 20.7815C41.5631 9.3042 32.2589 0 20.7815 0C10.0174 0 1.16466 8.18385 0.10606 18.6689C0.0364436 19.0326 0 19.408 0 19.792V20.7815V35.6255C0 38.9048 2.65835 41.5631 5.93759 41.5631H23.1566C24.0913 41.5631 24.9755 41.3472 25.7621 40.9624Z" fill="#3F3F3F"/>
<path d="M20.0368 11.1069C20.5024 10.8381 21.0761 10.8381 21.5418 11.1069L27.3141 14.4395C27.7797 14.7084 28.0666 15.2052 28.0666 15.7429V22.4082C28.0666 22.9459 27.7797 23.4427 27.3141 23.7116L21.5418 27.0442C21.0761 27.3131 20.5024 27.3131 20.0368 27.0442L14.2645 23.7116C13.7988 23.4427 13.512 22.9459 13.512 22.4082V15.7429C13.512 15.2052 13.7988 14.7084 14.2645 14.4395L20.0368 11.1069Z" fill="white"/>
<rect x="13.512" y="17.4453" width="4.01343" height="13.2945" fill="white"/>
<path d="M64.6139 11.0914C67.1251 11.0914 69.0941 11.6907 70.5208 12.8892C71.9476 14.0687 72.661 15.7142 72.661 17.8259C72.661 19.9185 71.9476 21.5641 70.5208 22.7626C69.0941 23.9421 67.1251 24.5318 64.6139 24.5318H58.9067V31.0665H57.4514V11.0914H64.6139ZM64.6139 23.2192C66.7446 23.2192 68.3711 22.7531 69.4936 21.8209C70.616 20.8887 71.1772 19.5571 71.1772 17.8259C71.1772 16.0947 70.616 14.763 69.4936 13.8309C68.3711 12.8797 66.7446 12.4041 64.6139 12.4041H58.9067V23.2192H64.6139Z" fill="#3F3F3F"/>
<path d="M76.6411 16.1708H78.0679V31.0665H76.6411V16.1708ZM77.3545 12.5468C77.0311 12.5468 76.7553 12.4421 76.527 12.2329C76.2987 12.0046 76.1845 11.7287 76.1845 11.4053C76.1845 11.0819 76.2987 10.8061 76.527 10.5778C76.7553 10.3495 77.0311 10.2354 77.3545 10.2354C77.6779 10.2354 77.9538 10.3495 78.1821 10.5778C78.4103 10.787 78.5245 11.0534 78.5245 11.3768C78.5245 11.7002 78.4103 11.976 78.1821 12.2043C77.9538 12.4326 77.6779 12.5468 77.3545 12.5468Z" fill="#3F3F3F"/>
<path d="M89.9886 31.1807C88.5427 31.1807 87.2491 30.8573 86.1077 30.2105C84.9662 29.5636 84.0721 28.6695 83.4253 27.5281C82.7785 26.3676 82.4551 25.0645 82.4551 23.6187C82.4551 22.1538 82.7785 20.8507 83.4253 19.7093C84.0721 18.5488 84.9662 17.6547 86.1077 17.0269C87.2491 16.3801 88.5427 16.0567 89.9886 16.0567C91.1871 16.0567 92.2714 16.2945 93.2416 16.7701C94.2309 17.2266 95.0299 17.902 95.6387 18.7961L94.5828 19.5666C94.0502 18.8246 93.3843 18.273 92.5853 17.9115C91.8053 17.531 90.9397 17.3408 89.9886 17.3408C88.8281 17.3408 87.7818 17.6071 86.8496 18.1398C85.9365 18.6534 85.2135 19.3859 84.6809 20.337C84.1672 21.2882 83.9104 22.3821 83.9104 23.6187C83.9104 24.8552 84.1672 25.9491 84.6809 26.9003C85.2135 27.8515 85.9365 28.5934 86.8496 29.1261C87.7818 29.6397 88.8281 29.8966 89.9886 29.8966C90.9397 29.8966 91.8053 29.7158 92.5853 29.3544C93.3843 28.9739 94.0502 28.4127 94.5828 27.6708L95.6387 28.4412C95.0299 29.3354 94.2309 30.0202 93.2416 30.4958C92.2714 30.9524 91.1871 31.1807 89.9886 31.1807Z" fill="#3F3F3F"/>
<path d="M105.481 31.1807C104.073 31.1807 102.798 30.8573 101.657 30.2105C100.534 29.5636 99.6498 28.6695 99.003 27.5281C98.3562 26.3676 98.0328 25.0645 98.0328 23.6187C98.0328 22.1729 98.3562 20.8792 99.003 19.7378C99.6498 18.5773 100.534 17.6737 101.657 17.0269C102.798 16.3801 104.073 16.0567 105.481 16.0567C106.888 16.0567 108.153 16.3801 109.276 17.0269C110.417 17.6737 111.311 18.5773 111.958 19.7378C112.605 20.8792 112.928 22.1729 112.928 23.6187C112.928 25.0645 112.605 26.3676 111.958 27.5281C111.311 28.6695 110.417 29.5636 109.276 30.2105C108.153 30.8573 106.888 31.1807 105.481 31.1807ZM105.481 29.8966C106.622 29.8966 107.64 29.6302 108.534 29.0976C109.447 28.5649 110.161 27.823 110.674 26.8718C111.207 25.9206 111.473 24.8362 111.473 23.6187C111.473 22.4011 111.207 21.3168 110.674 20.3656C110.161 19.4144 109.447 18.6725 108.534 18.1398C107.64 17.6071 106.622 17.3408 105.481 17.3408C104.339 17.3408 103.312 17.6071 102.399 18.1398C101.505 18.6725 100.791 19.4144 100.259 20.3656C99.7449 21.3168 99.4881 22.4011 99.4881 23.6187C99.4881 24.8362 99.7449 25.9206 100.259 26.8718C100.791 27.823 101.505 28.5649 102.399 29.0976C103.312 29.6302 104.339 29.8966 105.481 29.8966Z" fill="#3F3F3F"/>
<path d="M121.122 31.1807C119.923 31.1807 118.782 31 117.697 30.6385C116.613 30.277 115.766 29.8205 115.158 29.2688L115.814 28.1273C116.423 28.641 117.203 29.069 118.154 29.4115C119.124 29.7539 120.132 29.9251 121.179 29.9251C122.682 29.9251 123.785 29.6778 124.489 29.1832C125.212 28.6885 125.573 28.0037 125.573 27.1286C125.573 26.5008 125.373 26.0062 124.974 25.6447C124.593 25.2833 124.118 25.0169 123.547 24.8457C122.976 24.6745 122.187 24.4938 121.179 24.3035C119.999 24.0943 119.048 23.866 118.325 23.6187C117.602 23.3714 116.984 22.9719 116.47 22.4202C115.957 21.8685 115.7 21.1075 115.7 20.1373C115.7 18.9578 116.185 17.9876 117.155 17.2266C118.144 16.4467 119.543 16.0567 121.35 16.0567C122.301 16.0567 123.243 16.1898 124.175 16.4562C125.107 16.7225 125.868 17.0744 126.458 17.512L125.802 18.6534C125.193 18.2159 124.498 17.883 123.718 17.6547C122.938 17.4264 122.139 17.3122 121.321 17.3122C119.933 17.3122 118.886 17.5691 118.182 18.0827C117.479 18.5964 117.127 19.2717 117.127 20.1088C117.127 20.7746 117.326 21.2978 117.726 21.6782C118.125 22.0397 118.61 22.3155 119.181 22.5058C119.771 22.677 120.589 22.8672 121.635 23.0765C122.796 23.2858 123.728 23.514 124.432 23.7614C125.155 23.9896 125.763 24.3701 126.258 24.9028C126.753 25.4355 127 26.1679 127 27.1001C127 28.3366 126.486 29.3258 125.459 30.0678C124.432 30.8097 122.986 31.1807 121.122 31.1807Z" fill="#3F3F3F"/>
</svg>
